<svg xmlns="http://www.w3.org/2000/svg" xmlns:xlink="http://www.w3.org/1999/xlink" width="40" zoomAndPan="magnify" viewBox="0 0 30 30.000001" height="40" preserveAspectRatio="xMidYMid meet" version="1.0"><defs><filter x="0%" y="0%" width="100%" height="100%" id="ba1629e9f8"><feColorMatrix values="0 0 0 0 1 0 0 0 0 1 0 0 0 0 1 0 0 0 1 0" color-interpolation-filters="sRGB"/></filter><mask id="0ff8dc4357"><g filter="url(#ba1629e9f8)"><rect x="-3" width="36" fill="#000000" y="-3" height="36.000001" fill-opacity="0.4"/></g></mask><clipPath id="9791e54f8a"><path d="M 7 5 L 11 5 L 11 20.722656 L 7 20.722656 Z M 7 5 " clip-rule="nonzero"/></clipPath><clipPath id="e6091e62a1"><path d="M 5 1.125 L 13 1.125 L 13 7 L 5 7 Z M 5 1.125 " clip-rule="nonzero"/></clipPath><clipPath id="c4acc6fb7b"><path d="M 13 12 L 16 12 L 16 20.722656 L 13 20.722656 Z M 13 12 " clip-rule="nonzero"/></clipPath><clipPath id="b724a9a9b3"><path d="M 11 7 L 17.402344 7 L 17.402344 14 L 11 14 Z M 11 7 " clip-rule="nonzero"/></clipPath><clipPath id="2ca2e5f573"><path d="M 2 11 L 6 11 L 6 20.722656 L 2 20.722656 Z M 2 11 " clip-rule="nonzero"/></clipPath><clipPath id="0db1bab92b"><path d="M 0.707031 7 L 8 7 L 8 14 L 0.707031 14 Z M 0.707031 7 " clip-rule="nonzero"/></clipPath><clipPath id="01105c23c7"><rect x="0" width="18" y="0" height="22"/></clipPath></defs><g mask="url(#0ff8dc4357)"><g transform="matrix(1, 0, 0, 1, 6, 4)"><g clip-path="url(#01105c23c7)"><g clip-path="url(#9791e54f8a)"><path fill="#ffffff" d="M 10.300781 19.683594 C 10.300781 20.324219 9.78125 20.84375 9.140625 20.84375 C 8.5 20.84375 7.980469 20.324219 7.980469 19.683594 L 7.980469 6.597656 C 7.980469 5.957031 8.5 5.4375 9.140625 5.4375 C 9.78125 5.4375 10.300781 5.957031 10.300781 6.597656 L 10.300781 19.683594 " fill-opacity="1" fill-rule="nonzero"/></g><g clip-path="url(#e6091e62a1)"><path fill="#ffffff" d="M 9.140625 1.125 L 5.972656 6.609375 L 12.308594 6.609375 L 9.140625 1.125 L 5.972656 6.609375 L 12.308594 6.609375 L 9.140625 1.125 " fill-opacity="1" fill-rule="nonzero"/></g><g clip-path="url(#c4acc6fb7b)"><path fill="#ffffff" d="M 13.347656 12.257812 L 13.347656 19.742188 C 13.347656 20.382812 13.863281 20.90625 14.507812 20.90625 C 15.148438 20.90625 15.667969 20.382812 15.667969 19.742188 L 15.667969 12.257812 L 13.347656 12.257812 " fill-opacity="1" fill-rule="nonzero"/></g><g clip-path="url(#b724a9a9b3)"><path fill="#ffffff" d="M 14.507812 7.738281 L 11.339844 13.226562 L 17.671875 13.226562 L 14.507812 7.738281 L 11.339844 13.226562 L 17.671875 13.226562 L 14.507812 7.738281 " fill-opacity="1" fill-rule="nonzero"/></g><g clip-path="url(#2ca2e5f573)"><path fill="#ffffff" d="M 2.722656 11.773438 L 2.722656 19.742188 C 2.722656 20.382812 3.242188 20.90625 3.882812 20.90625 C 4.523438 20.90625 5.042969 20.382812 5.042969 19.742188 L 5.042969 11.773438 L 2.722656 11.773438 " fill-opacity="1" fill-rule="nonzero"/></g><g clip-path="url(#0db1bab92b)"><path fill="#ffffff" d="M 3.882812 7.738281 L 0.714844 13.226562 L 7.050781 13.226562 L 3.882812 7.738281 L 0.714844 13.226562 L 7.050781 13.226562 L 3.882812 7.738281 " fill-opacity="1" fill-rule="nonzero"/></g></g></g></g></svg>