<svg xmlns="http://www.w3.org/2000/svg" xmlns:xlink="http://www.w3.org/1999/xlink" width="40" zoomAndPan="magnify" viewBox="0 0 30 30.000001" height="40" preserveAspectRatio="xMidYMid meet" version="1.0"><defs><filter x="0%" y="0%" width="100%" height="100%" id="d1aaa47d13"><feColorMatrix values="0 0 0 0 1 0 0 0 0 1 0 0 0 0 1 0 0 0 1 0" color-interpolation-filters="sRGB"/></filter><mask id="2ea9c642e9"><g filter="url(#d1aaa47d13)"><rect x="-3" width="36" fill="#000000" y="-3" height="36.000001" fill-opacity="0.4"/></g></mask><clipPath id="475fd9a7bb"><path d="M 7 5 L 11 5 L 11 20.386719 L 7 20.386719 Z M 7 5 " clip-rule="nonzero"/></clipPath><clipPath id="a16318c913"><path d="M 5 0.855469 L 13 0.855469 L 13 7 L 5 7 Z M 5 0.855469 " clip-rule="nonzero"/></clipPath><clipPath id="c97f0fdc6f"><path d="M 13 11 L 16 11 L 16 20.386719 L 13 20.386719 Z M 13 11 " clip-rule="nonzero"/></clipPath><clipPath id="7e114ff595"><path d="M 11 7 L 17.402344 7 L 17.402344 13 L 11 13 Z M 11 7 " clip-rule="nonzero"/></clipPath><clipPath id="04861145a1"><path d="M 2 11 L 5 11 L 5 20.386719 L 2 20.386719 Z M 2 11 " clip-rule="nonzero"/></clipPath><clipPath id="704bc97b93"><path d="M 0.707031 7 L 7 7 L 7 13 L 0.707031 13 Z M 0.707031 7 " clip-rule="nonzero"/></clipPath><clipPath id="bcfbd0ca89"><rect x="0" width="18" y="0" height="21"/></clipPath></defs><g mask="url(#2ea9c642e9)"><g transform="matrix(1, 0, 0, 1, 6, 4)"><g clip-path="url(#bcfbd0ca89)"><g clip-path="url(#475fd9a7bb)"><path fill="#ffffff" d="M 10.082031 18.976562 C 10.082031 19.601562 9.574219 20.109375 8.949219 20.109375 C 8.324219 20.109375 7.816406 19.601562 7.816406 18.976562 L 7.816406 6.195312 C 7.816406 5.570312 8.324219 5.0625 8.949219 5.0625 C 9.574219 5.0625 10.082031 5.570312 10.082031 6.195312 L 10.082031 18.976562 " fill-opacity="1" fill-rule="nonzero"/></g><g clip-path="url(#a16318c913)"><path fill="#ffffff" d="M 8.949219 0.851562 L 5.855469 6.210938 L 12.042969 6.210938 L 8.949219 0.851562 L 5.855469 6.210938 L 12.042969 6.210938 L 8.949219 0.851562 " fill-opacity="1" fill-rule="nonzero"/></g><g clip-path="url(#c97f0fdc6f)"><path fill="#ffffff" d="M 13.054688 11.722656 L 13.054688 19.035156 C 13.054688 19.660156 13.5625 20.167969 14.1875 20.167969 C 14.816406 20.167969 15.320312 19.660156 15.320312 19.035156 L 15.320312 11.722656 L 13.054688 11.722656 " fill-opacity="1" fill-rule="nonzero"/></g><g clip-path="url(#7e114ff595)"><path fill="#ffffff" d="M 14.1875 7.3125 L 11.097656 12.667969 L 17.28125 12.667969 L 14.1875 7.3125 L 11.097656 12.667969 L 17.28125 12.667969 L 14.1875 7.3125 " fill-opacity="1" fill-rule="nonzero"/></g><g clip-path="url(#04861145a1)"><path fill="#ffffff" d="M 2.679688 11.25 L 2.679688 19.035156 C 2.679688 19.660156 3.1875 20.167969 3.816406 20.167969 C 4.441406 20.167969 4.949219 19.660156 4.949219 19.035156 L 4.949219 11.25 L 2.679688 11.25 " fill-opacity="1" fill-rule="nonzero"/></g><g clip-path="url(#704bc97b93)"><path fill="#ffffff" d="M 3.816406 7.3125 L 0.722656 12.667969 L 6.90625 12.667969 L 3.816406 7.3125 L 0.722656 12.667969 L 6.90625 12.667969 L 3.816406 7.3125 " fill-opacity="1" fill-rule="nonzero"/></g></g></g></g></svg>